<svg width="32" height="32" viewBox="0 0 32 32" fill="none" xmlns="http://www.w3.org/2000/svg">
<path d="M18 15H14.3333V10.9333C14.3333 10.804 14.3334 10.7271 14.335 10.6691C14.336 10.6322 14.3374 10.6162 14.3378 10.6124C14.361 10.4715 14.4715 10.361 14.6124 10.3378C14.6162 10.3374 14.6322 10.336 14.6691 10.335C14.7271 10.3334 14.804 10.3333 14.9333 10.3333H18C19.2887 10.3333 20.3333 11.378 20.3333 12.6667C20.3333 13.9553 19.2887 15 18 15Z" fill="#7B58E8"/>
<path fill-rule="evenodd" clip-rule="evenodd" d="M29.3333 16C29.3333 23.3638 23.3638 29.3333 16 29.3333C8.63619 29.3333 2.66666 23.3638 2.66666 16C2.66666 8.63619 8.63619 2.66666 16 2.66666C23.3638 2.66666 29.3333 8.63619 29.3333 16ZM11 18.6667C11 18.1144 11.4477 17.6667 12 17.6667H12.3333V17H12C11.4477 17 11 16.5523 11 16C11 15.4477 11.4477 15 12 15H12.3333L12.3333 10.882C12.333 10.688 12.3328 10.4863 12.362 10.3016C12.5202 9.30323 13.3032 8.52018 14.3016 8.36205C14.4863 8.33281 14.688 8.33305 14.882 8.33328L18 8.33332C20.3932 8.33332 22.3333 10.2734 22.3333 12.6667C22.3333 15.0599 20.3932 17 18 17H14.3333V17.6667H16C16.5523 17.6667 17 18.1144 17 18.6667C17 19.2189 16.5523 19.6667 16 19.6667H14.3333V22.6667C14.3333 23.2189 13.8856 23.6667 13.3333 23.6667C12.781 23.6667 12.3333 23.2189 12.3333 22.6667V19.6667H12C11.4477 19.6667 11 19.2189 11 18.6667Z" fill="#7B58E8"/>
</svg>
