<svg width="32" height="32" viewBox="0 0 32 32" fill="none" xmlns="http://www.w3.org/2000/svg">
<path fill-rule="evenodd" clip-rule="evenodd" d="M4.05397 3.05654C3.53294 2.87336 2.96208 3.14724 2.7789 3.66826C2.59571 4.18928 2.86959 4.76015 3.39061 4.94333L3.73889 5.06578C4.62903 5.37873 5.21404 5.58613 5.6445 5.79734C6.0488 5.99572 6.22702 6.1563 6.34444 6.32811C6.46478 6.50423 6.55772 6.74612 6.61016 7.23059C6.66503 7.73753 6.66639 8.39782 6.66639 9.38441L6.6664 12.8533C6.6664 16.7754 6.75071 18.0698 7.90591 19.2882C9.06111 20.5067 10.9204 20.5067 14.6389 20.5067H21.7094C23.7908 20.5067 24.8315 20.5067 25.5671 19.9072C26.3027 19.3077 26.5128 18.2885 26.933 16.2499L27.5993 13.017C28.0621 10.6982 28.2935 9.53888 27.7016 8.76943C27.1097 7.99999 25.0873 7.99999 22.8407 7.99999H8.65645C8.64753 7.63955 8.63062 7.31163 8.59855 7.01536C8.52691 6.35352 8.37168 5.7499 7.99571 5.19971C7.6168 4.64523 7.113 4.29011 6.5255 4.00184C5.97604 3.73224 5.27787 3.48681 4.45583 3.19783L4.05397 3.05654ZM20.6897 11.2759C21.0896 11.6567 21.105 12.2897 20.7241 12.6896L16.9146 16.6896C16.7259 16.8878 16.4642 17 16.1905 17C15.9168 17 15.6551 16.8878 15.4663 16.6896L13.9425 15.0896C13.5617 14.6897 13.5771 14.0567 13.977 13.6759C14.377 13.295 15.0099 13.3104 15.3908 13.7103L16.1905 14.55L19.2759 11.3103C19.6568 10.9104 20.2897 10.895 20.6897 11.2759Z" fill="#7B58E8"/>
<path d="M10 24C11.1046 24 12 24.8954 12 26C12 27.1046 11.1046 28 10 28C8.89544 28 8.00001 27.1046 8.00001 26C8.00001 24.8954 8.89544 24 10 24Z" fill="#7B58E8"/>
<path d="M22 24.0001C23.1046 24.0001 24 24.8955 24 26.0001C24 27.1047 23.1046 28.0001 22 28.0001C20.8954 28.0001 20 27.1047 20 26.0001C20 24.8955 20.8954 24.0001 22 24.0001Z" fill="#7B58E8"/>
</svg>
