<svg width="36" height="36" viewBox="0 0 36 36" fill="none" xmlns="http://www.w3.org/2000/svg">
<rect width="36" height="36" rx="18" fill="#181B22"/>
<path d="M20.9167 14.25C20.9167 15.8608 19.6109 17.1667 18 17.1667C16.3892 17.1667 15.0834 15.8608 15.0834 14.25C15.0834 12.6392 16.3892 11.3333 18 11.3333C19.6109 11.3333 20.9167 12.6392 20.9167 14.25Z" fill="#858892"/>
<path opacity="0.4" d="M24.25 14.25C24.25 15.4006 23.3173 16.3333 22.1667 16.3333C21.0161 16.3333 20.0834 15.4006 20.0834 14.25C20.0834 13.0994 21.0161 12.1667 22.1667 12.1667C23.3173 12.1667 24.25 13.0994 24.25 14.25Z" fill="#858892"/>
<path opacity="0.4" d="M11.75 14.25C11.75 15.4006 12.6827 16.3333 13.8333 16.3333C14.9839 16.3333 15.9166 15.4006 15.9166 14.25C15.9166 13.0994 14.9839 12.1667 13.8333 12.1667C12.6827 12.1667 11.75 13.0994 11.75 14.25Z" fill="#858892"/>
<path d="M23 21.75C23 23.3608 20.7614 24.6667 18 24.6667C15.2386 24.6667 13 23.3608 13 21.75C13 20.1392 15.2386 18.8333 18 18.8333C20.7614 18.8333 23 20.1392 23 21.75Z" fill="#858892"/>
<path opacity="0.4" d="M26.3333 21.75C26.3333 22.9006 24.8409 23.8333 23 23.8333C21.159 23.8333 19.6666 22.9006 19.6666 21.75C19.6666 20.5994 21.159 19.6667 23 19.6667C24.8409 19.6667 26.3333 20.5994 26.3333 21.75Z" fill="#858892"/>
<path opacity="0.4" d="M9.66671 21.75C9.66671 22.9006 11.1591 23.8333 13 23.8333C14.841 23.8333 16.3334 22.9006 16.3334 21.75C16.3334 20.5994 14.841 19.6667 13 19.6667C11.1591 19.6667 9.66671 20.5994 9.66671 21.75Z" fill="#858892"/>
</svg>
