<svg width="42" height="42" viewBox="0 0 42 42" fill="none" xmlns="http://www.w3.org/2000/svg">
<mask id="mask0_1_326" style="mask-type:luminance" maskUnits="userSpaceOnUse" x="0" y="0" width="42" height="42">
<path d="M42 0H0V42H42V0Z" fill="white"/>
</mask>
<g mask="url(#mask0_1_326)">
<path d="M42 21C42 9.40202 32.598 0 21 0C9.40202 0 0 9.40202 0 21C0 32.598 9.40202 42 21 42C32.598 42 42 32.598 42 21Z" fill="#FF5533"/>
<path d="M15.6882 18.0667C15.7713 17.9935 15.8129 17.9568 15.8194 17.921C15.8251 17.8898 15.8164 17.8577 15.7957 17.8337C15.7719 17.806 15.7185 17.7956 15.6115 17.7748C14.364 17.532 13.0725 17.3896 11.9395 17.3777C11.8852 17.3772 11.858 17.3769 11.8369 17.3667C11.8182 17.3577 11.8029 17.3436 11.7922 17.3258C11.7803 17.3056 11.7777 17.2788 11.7725 17.2252L11.3524 12.9057C11.3472 12.8521 11.3446 12.8254 11.3526 12.8031C11.3597 12.7836 11.3724 12.7665 11.3892 12.7541C11.4082 12.7401 11.4346 12.735 11.4874 12.7248C17.8157 11.5005 24.1146 11.4376 30.5378 12.7272C30.5904 12.7377 30.6166 12.743 30.6356 12.7571C30.6522 12.7695 30.6648 12.7866 30.6718 12.8062C30.6797 12.8284 30.677 12.8551 30.6716 12.9085L30.2358 17.2258C30.2304 17.2792 30.2277 17.3059 30.2157 17.326C30.2051 17.3438 30.1898 17.3578 30.1711 17.3668C30.15 17.3769 30.123 17.3772 30.0688 17.3777C28.9357 17.3895 27.644 17.532 26.3962 17.7748C26.2893 17.7956 26.2358 17.806 26.212 17.8337C26.1913 17.8577 26.1826 17.8898 26.1883 17.921C26.1949 17.9568 26.2364 17.9935 26.3196 18.0667C29.3258 20.7169 31.452 24.2087 31.4997 29.1141C31.5003 29.173 31.5006 29.2025 31.4892 29.2252C31.4793 29.245 31.463 29.2614 31.4433 29.2716C31.4207 29.2831 31.3913 29.2831 31.3325 29.2831H27.0019C26.943 29.2831 26.9136 29.2831 26.8913 29.2719C26.8715 29.2619 26.8558 29.2464 26.8455 29.2267C26.834 29.2046 26.8335 29.1744 26.8327 29.1141C26.7766 25.0197 24.6738 22.2901 21.0955 19.9534C21.0624 19.9318 21.0459 19.921 21.028 19.9168C21.0122 19.9131 20.9955 19.9131 20.9798 19.9168C20.9619 19.921 20.9453 19.9318 20.9123 19.9534C17.334 22.2901 15.2312 25.0197 15.175 29.1141C15.1742 29.1744 15.1738 29.2046 15.1622 29.2267C15.152 29.2464 15.1362 29.2619 15.1164 29.2719C15.0941 29.2831 15.0647 29.2831 15.0059 29.2831H10.6752C10.6164 29.2831 10.587 29.2831 10.5645 29.2716C10.5447 29.2614 10.5285 29.245 10.5185 29.2252C10.5072 29.2025 10.5075 29.173 10.508 29.1141C10.5558 24.2087 12.682 20.7169 15.6882 18.0667Z" fill="white"/>
</g>
</svg>
