<svg width="36" height="36" viewBox="0 0 36 36" fill="none" xmlns="http://www.w3.org/2000/svg">
<rect width="36" height="36" rx="18" fill="#181B22"/>
<path opacity="0.5" fill-rule="evenodd" clip-rule="evenodd" d="M26.3335 18C26.3335 22.6024 22.6025 26.3333 18.0001 26.3333C13.3978 26.3333 9.66681 22.6024 9.66681 18C9.66681 13.3976 13.3978 9.66667 18.0001 9.66667C22.6025 9.66667 26.3335 13.3976 26.3335 18Z" fill="#858892"/>
<path fill-rule="evenodd" clip-rule="evenodd" d="M15.4999 19.0417C15.1548 19.0417 14.8749 19.3215 14.8749 19.6667C14.8749 20.0119 15.1548 20.2917 15.4999 20.2917H15.7083V22.1667C15.7083 22.5119 15.9881 22.7917 16.3333 22.7917C16.6784 22.7917 16.9583 22.5119 16.9583 22.1667V20.2917H17.9999C18.3451 20.2917 18.6249 20.0119 18.6249 19.6667C18.6249 19.3215 18.3451 19.0417 17.9999 19.0417H16.9583V18.6251H19.2499C20.7457 18.6251 21.9583 17.4125 21.9583 15.9167C21.9583 14.421 20.7457 13.2084 19.2499 13.2084L17.3012 13.2084C17.1799 13.2082 17.0539 13.2081 16.9385 13.2263C16.3145 13.3252 15.8251 13.8146 15.7262 14.4386C15.7079 14.554 15.7081 14.68 15.7082 14.8013L15.7083 17.3751H15.4999C15.1548 17.3751 14.8749 17.6549 14.8749 18.0001C14.8749 18.3452 15.1548 18.6251 15.4999 18.6251H15.7083V19.0417H15.4999ZM19.2499 17.3751H16.9583V14.8334C16.9583 14.7526 16.9583 14.7045 16.9593 14.6682C16.96 14.6452 16.9608 14.6352 16.9611 14.6328C16.9756 14.5447 17.0446 14.4757 17.1327 14.4612C17.1351 14.4609 17.1451 14.4601 17.1681 14.4594C17.2044 14.4584 17.2525 14.4584 17.3333 14.4584H19.2499C20.0554 14.4584 20.7083 15.1113 20.7083 15.9167C20.7083 16.7221 20.0554 17.3751 19.2499 17.3751Z" fill="#858892"/>
</svg>
