<svg width="42" height="42" viewBox="0 0 42 42" fill="none" xmlns="http://www.w3.org/2000/svg">
<path d="M21.0022 0H21C9.40202 0 0 9.40202 0 21C0 32.598 9.40202 42 21 42H21.0022C32.6002 42 42.0022 32.598 42.0022 21C42.0022 9.40202 32.6002 0 21.0022 0Z" fill="#FD8C00"/>
<path d="M30.4723 26.4648C30.9548 26.6504 31.1404 27.3733 31.1773 27.6887C31.2517 28.264 31.0851 28.4865 30.8995 28.4865C30.7138 28.4865 30.4538 28.264 30.176 27.8189C29.8975 27.3733 29.7862 26.873 29.935 26.613C30.0272 26.4458 30.2307 26.372 30.4723 26.4648ZM27.6532 28.5609C27.9501 28.5609 28.2839 28.6906 28.5808 28.95C29.1556 29.4325 29.3227 29.9888 29.0258 30.3969C28.8587 30.601 28.5808 30.7307 28.2654 30.7307C27.9501 30.7307 27.6163 30.6194 27.3938 30.4154C26.8743 29.9703 26.7262 29.2278 27.0594 28.8203C27.1897 28.6531 27.3938 28.5609 27.6532 28.5609ZM21.1618 33.9209C14.1129 33.9209 8.40039 28.2081 8.40039 21.1601C8.40039 14.1122 14.1135 8.39996 21.1612 8.39996C28.2095 8.39996 33.9226 14.1128 33.9226 21.1601C33.9226 23.5525 33.255 25.7973 32.124 27.7077C32.0865 27.763 31.9937 27.7446 31.9752 27.6702C31.5302 24.5359 29.6196 22.8106 26.8374 22.2917C26.5959 22.2543 26.559 22.1061 26.8743 22.0692C27.7276 21.9949 28.933 22.0133 29.5637 22.1246C29.6006 21.8092 29.6196 21.4755 29.6196 21.1417C29.6196 16.4861 25.8355 12.7022 21.1797 12.7022C16.5244 12.7022 12.7403 16.4861 12.7403 21.1417C12.7403 25.7973 16.5244 29.5812 21.1802 29.5812H21.5694C21.4372 28.8282 21.3812 28.0638 21.4022 27.2995C21.4212 26.7801 21.5325 26.7058 21.755 27.1139C22.9236 29.1356 24.5931 30.9532 27.8573 31.6767C30.5282 32.2705 33.1991 32.9565 36.0741 36.6101C36.3336 36.9255 35.9444 37.2592 35.6475 36.9998C32.7172 34.4028 30.0462 33.5496 27.6163 33.5496C24.8894 33.5687 23.0354 33.9209 21.1618 33.9209Z" fill="white"/>
</svg>
