<svg width="42" height="42" viewBox="0 0 42 42" fill="none" xmlns="http://www.w3.org/2000/svg">
<path d="M42 21C42 9.40202 32.598 0 21 0C9.40202 0 0 9.40202 0 21C0 32.598 9.40202 42 21 42C32.598 42 42 32.598 42 21Z" fill="white"/>
<mask id="mask0_1_296" style="mask-type:luminance" maskUnits="userSpaceOnUse" x="12" y="10" width="18" height="22">
<path d="M29.9082 10.326H12.4082V31.9624H29.9082V10.326Z" fill="white"/>
</mask>
<g mask="url(#mask0_1_296)">
<path d="M12.4082 15.0356L15.0032 19.719V22.5757L12.4112 27.2499L12.4082 15.0356Z" fill="#5B57A2"/>
<path d="M22.373 18.0147L24.8047 16.5099L29.7811 16.5052L22.373 21.0874V18.0147Z" fill="#D90751"/>
<path d="M22.3588 15.008L22.3726 21.2086L19.7715 19.5949V10.326L22.3588 15.008Z" fill="#FAB718"/>
<path d="M29.7806 16.5052L24.804 16.5099L22.3588 15.008L19.7715 10.326L29.7806 16.5052Z" fill="#ED6F26"/>
<path d="M22.3726 27.2758V24.2674L19.7715 22.6844L19.7729 31.9624L22.3726 27.2758Z" fill="#63B22F"/>
<path d="M24.7975 25.7847L15.003 19.719L12.4082 15.0356L29.7695 25.7786L24.7975 25.7847Z" fill="#1487C9"/>
<path d="M19.7715 31.9624L22.3708 27.2758L24.7963 25.7847L29.7683 25.7786L19.7715 31.9624Z" fill="#017F36"/>
<path d="M12.4102 27.2498L19.791 22.6845L17.3096 21.1473L15.0021 22.5756L12.4102 27.2498Z" fill="#984995"/>
</g>
</svg>
