<svg width="16" height="13" viewBox="0 0 16 13" fill="none" xmlns="http://www.w3.org/2000/svg">
<path fill-rule="evenodd" clip-rule="evenodd" d="M1.06551 5.52963C5.2261 3.71692 8.00049 2.52187 9.38865 1.94449C13.3522 0.295929 14.1757 0.00955701 14.7125 0.000100824C14.8306 -0.00197896 15.0946 0.0272808 15.2656 0.166033C15.41 0.283192 15.4497 0.441458 15.4687 0.552538C15.4877 0.663618 15.5114 0.916661 15.4926 1.11438C15.2778 3.37113 14.3484 8.84767 13.8756 11.3753C13.6755 12.4448 13.2816 12.8034 12.9002 12.8385C12.0714 12.9148 11.4421 12.2908 10.6393 11.7646C9.38322 10.9411 8.67359 10.4286 7.4543 9.62508C6.0452 8.6965 6.95866 8.18614 7.7617 7.35207C7.97186 7.13379 11.6236 3.81225 11.6943 3.51094C11.7031 3.47325 11.7113 3.33278 11.6279 3.25861C11.5444 3.18444 11.4213 3.2098 11.3324 3.22997C11.2064 3.25857 9.19971 4.58491 5.31233 7.20899C4.74274 7.60012 4.22683 7.79069 3.76459 7.7807C3.255 7.76969 2.27476 7.49257 1.54605 7.2557C0.652264 6.96516 -0.058102 6.81155 0.00375489 6.31814C0.0359738 6.06113 0.389891 5.7983 1.06551 5.52963Z" fill="#858892"/>
</svg>
