<svg width="42" height="42" viewBox="0 0 42 42" fill="none" xmlns="http://www.w3.org/2000/svg">
<path d="M21 42C32.598 42 42 32.598 42 21C42 9.40202 32.598 0 21 0C9.40202 0 0 9.40202 0 21C0 32.598 9.40202 42 21 42Z" fill="#0088CC"/>
<path fill-rule="evenodd" clip-rule="evenodd" d="M15.1566 13.8783L26.9349 13.8782C27.3516 13.8782 27.768 13.9394 28.2032 14.1423C28.7248 14.3854 29.0014 14.7687 29.1952 15.0521C29.2103 15.0742 29.2244 15.0969 29.2374 15.1201C29.4653 15.5257 29.5827 15.9637 29.5827 16.4347C29.5827 16.8823 29.4762 17.37 29.2374 17.795C29.2352 17.7991 29.2328 17.8031 29.2305 17.8072L21.7892 30.5898C21.6251 30.8717 21.323 31.0446 20.9969 31.0435C20.6707 31.0423 20.3699 30.8672 20.2078 30.5842L12.9031 17.8288C12.901 17.8254 12.8989 17.8219 12.8968 17.8184C12.7296 17.5429 12.4711 17.1169 12.4259 16.5672C12.3843 16.0616 12.4979 15.5551 12.752 15.1159C13.006 14.6766 13.3884 14.3254 13.8484 14.1105C14.3416 13.88 14.8414 13.8783 15.1566 13.8783ZM20.087 15.7043H15.1566C14.8327 15.7043 14.7083 15.7243 14.6214 15.7649C14.5012 15.821 14.4002 15.9133 14.3327 16.03C14.2652 16.1468 14.2347 16.2821 14.2458 16.4176C14.2522 16.4952 14.2838 16.584 14.4705 16.8919C14.4744 16.8983 14.4782 16.9048 14.482 16.9114L20.087 26.6988V15.7043ZM21.9131 15.7043V26.7472L27.648 16.8958C27.7127 16.7782 27.7566 16.6083 27.7566 16.4347C27.7566 16.294 27.7274 16.1717 27.6622 16.0457C27.5937 15.9472 27.552 15.8951 27.5171 15.8594C27.4872 15.8289 27.4642 15.8125 27.4316 15.7974C27.296 15.7342 27.1573 15.7043 26.9349 15.7043H21.9131Z" fill="white"/>
</svg>
