<svg width="14" height="14" viewBox="0 0 14 14" fill="none" xmlns="http://www.w3.org/2000/svg">
<path d="M13.3333 6.66667C13.3333 10.3486 10.3486 13.3333 6.66667 13.3333C2.98477 13.3333 0 10.3486 0 6.66667C0 2.98477 2.98477 0 6.66667 0C10.3486 0 13.3333 2.98477 13.3333 6.66667Z" fill="#282D36"/>
<path d="M6.66666 3.83331C6.25244 3.83331 5.91666 4.1691 5.91666 4.58331C5.91666 4.85946 5.6928 5.08331 5.41666 5.08331C5.14051 5.08331 4.91666 4.85946 4.91666 4.58331C4.91666 3.61681 5.70016 2.83331 6.66666 2.83331C7.63315 2.83331 8.41666 3.61681 8.41666 4.58331C8.41666 5.0572 8.22763 5.48797 7.92196 5.80262C7.86045 5.86594 7.80178 5.92456 7.74581 5.98049C7.60192 6.12425 7.47586 6.2502 7.36526 6.39231C7.21924 6.57993 7.16666 6.71782 7.16666 6.83331V7.33331C7.16666 7.60946 6.9428 7.83331 6.66666 7.83331C6.39051 7.83331 6.16666 7.60946 6.16666 7.33331V6.83331C6.16666 6.39652 6.37 6.04294 6.5761 5.77812C6.7286 5.58218 6.92028 5.39087 7.07584 5.23562L7.07584 5.23562C7.12277 5.18879 7.16641 5.14524 7.20469 5.10583C7.33638 4.97027 7.41666 4.78668 7.41666 4.58331C7.41666 4.1691 7.08087 3.83331 6.66666 3.83331Z" fill="#858892"/>
<path d="M6.66666 9.99998C7.03485 9.99998 7.33332 9.7015 7.33332 9.33331C7.33332 8.96512 7.03485 8.66665 6.66666 8.66665C6.29847 8.66665 5.99999 8.96512 5.99999 9.33331C5.99999 9.7015 6.29847 9.99998 6.66666 9.99998Z" fill="#858892"/>
</svg>
