<svg width="43" height="43" viewBox="0 0 43 43" fill="none" xmlns="http://www.w3.org/2000/svg">
<path d="M21.5844 42.2891C33.1812 42.1272 42.451 32.5948 42.2891 20.998C42.1272 9.4011 32.5948 0.131272 20.998 0.293205C9.4011 0.455138 0.131273 9.98751 0.293206 21.5844C0.455139 33.1812 9.98751 42.451 21.5844 42.2891Z" fill="#EB0017"/>
<path d="M31.4423 15.8534L22.3388 20.1216L28.4235 13.7061L31.4423 15.8534ZM27.6623 13.4174L20.7638 20.7254L11.256 9.47989L27.6623 13.4174ZM11.1353 10.4721L20.37 21.3921L19.1888 33.0996L11.1353 10.4721ZM19.9028 33.1049L21.0945 21.5181L31.017 16.8666L19.9028 33.1049Z" fill="white"/>
</svg>
