<svg width="44" height="38" viewBox="0 0 44 38" fill="none" xmlns="http://www.w3.org/2000/svg">
<path fill-rule="evenodd" clip-rule="evenodd" d="M7.9977 0.186633L0.0327457 16.917C0.00243677 16.9793 -0.00716794 17.0496 0.00533618 17.1176C0.0178403 17.1857 0.0517973 17.248 0.102241 17.2954L21.6137 37.9085C21.6748 37.9671 21.7562 37.9999 21.8408 37.9999C21.9255 37.9999 22.0069 37.9671 22.068 37.9085L43.5794 17.2967C43.6299 17.2493 43.6638 17.187 43.6763 17.1189C43.6888 17.0508 43.6792 16.9806 43.6489 16.9183L35.6839 0.18792C35.6582 0.131732 35.6169 0.0841342 35.5649 0.0508143C35.5128 0.0174944 35.4523 -0.000137831 35.3905 2.49056e-05H8.2937C8.23162 -0.000747476 8.17064 0.01646 8.11812 0.0495717C8.0656 0.0826833 8.02378 0.130285 7.9977 0.186633Z" fill="#50AF95"/>
<path fill-rule="evenodd" clip-rule="evenodd" d="M24.6045 18.6351C24.4501 18.6467 23.6521 18.6943 21.8723 18.6943C20.4566 18.6943 19.4515 18.6519 19.0989 18.6351C13.6281 18.3945 9.54455 17.4421 9.54455 16.3019C9.54455 15.1616 13.6281 14.2106 19.0989 13.9661V17.6866C19.4567 17.7124 20.4811 17.7729 21.8967 17.7729C23.5955 17.7729 24.4462 17.7021 24.5993 17.6879V13.9686C30.0586 14.2119 34.1331 15.1642 34.1331 16.3019C34.1331 17.4395 30.0599 18.3919 24.5993 18.6338L24.6045 18.6351ZM24.6045 13.5838V10.2545H32.2233V5.17744H11.4801V10.2545H19.0976V13.5825C12.9061 13.867 8.24988 15.0934 8.24988 16.5631C8.24988 18.0328 12.9061 19.258 19.0976 19.5437V30.2126H24.6032V19.5399C30.7806 19.2554 35.4291 18.0303 35.4291 16.5618C35.4291 15.0934 30.7844 13.8682 24.6032 13.5825L24.6045 13.5838Z" fill="white"/>
</svg>
