<svg width="42" height="42" viewBox="0 0 42 42" fill="none" xmlns="http://www.w3.org/2000/svg">
<path d="M21 42C32.598 42 42 32.598 42 21C42 9.40202 32.598 0 21 0C9.40202 0 0 9.40202 0 21C0 32.598 9.40202 42 21 42Z" fill="white"/>
<mask id="mask0_1_250" style="mask-type:luminance" maskUnits="userSpaceOnUse" x="13" y="16" width="16" height="10">
<path d="M29 16H13V26H29V16Z" fill="white"/>
</mask>
<g mask="url(#mask0_1_250)">
<mask id="mask1_1_250" style="mask-type:luminance" maskUnits="userSpaceOnUse" x="13" y="16" width="16" height="10">
<path d="M28.9332 16.1429H13.3301V25.8572H28.9332V16.1429Z" fill="white"/>
</mask>
<g mask="url(#mask1_1_250)">
<path d="M23.2361 17.1771H19.0137V24.7789H23.2361V17.1771Z" fill="#FF5A00"/>
<path d="M19.2953 20.9781C19.2953 19.4336 20.0198 18.0628 21.1317 17.1772C20.3134 16.5325 19.2812 16.1428 18.1553 16.1428C15.4882 16.1428 13.3301 18.3054 13.3301 20.9781C13.3301 23.6507 15.4882 25.8133 18.1553 25.8133C19.2812 25.8133 20.3134 25.4237 21.1317 24.779C20.0183 23.9058 19.2953 22.5225 19.2953 20.9781Z" fill="#EB001B"/>
<path d="M28.9324 20.9781C28.9324 23.6507 26.7744 25.8133 24.1072 25.8133C22.9813 25.8133 21.9491 25.4237 21.1309 24.779C22.2567 23.8917 22.9673 22.5225 22.9673 20.9781C22.9673 19.4336 22.2427 18.0628 21.1309 17.1772C21.9476 16.5325 22.9798 16.1428 24.1056 16.1428C26.7744 16.1428 28.9324 18.3195 28.9324 20.9781Z" fill="#F79E1B"/>
</g>
</g>
<mask id="mask2_1_250" style="mask-type:luminance" maskUnits="userSpaceOnUse" x="12" y="5" width="18" height="7">
<path d="M30 5H12V12H30V5Z" fill="white"/>
</mask>
<g mask="url(#mask2_1_250)">
<path d="M23.7083 5.28552C22.4364 5.28552 21.2998 6.05732 21.2998 7.48326C21.2998 9.11855 23.3156 9.2315 23.3156 10.053C23.3156 10.3989 22.977 10.7086 22.3987 10.7086C21.578 10.7086 20.9645 10.2759 20.9645 10.2759L20.7021 11.7148C20.7021 11.7148 21.4087 12.0803 22.3469 12.0803C23.7375 12.0803 24.8317 11.2706 24.8317 9.8203C24.8317 8.09232 22.8075 7.98273 22.8075 7.22022C22.8075 6.94925 23.0854 6.65235 23.6621 6.65235C24.3128 6.65235 24.8436 6.96701 24.8436 6.96701L25.1005 5.57724C25.1005 5.57724 24.5229 5.28552 23.7083 5.28552ZM12.0718 5.39041L12.041 5.60019C12.041 5.60019 12.5761 5.71484 13.058 5.94353C13.6786 6.20578 13.7228 6.35845 13.8273 6.83263L14.9661 11.9722H16.4926L18.8444 5.39041H17.3214L15.8102 9.86537L15.1935 6.07219C15.137 5.63806 14.8505 5.39041 14.4999 5.39041H12.0718ZM19.4569 5.39041L18.2621 11.9722H19.7144L20.905 5.39041H19.4569ZM27.5573 5.39041C27.207 5.39041 27.0215 5.60992 26.8853 5.99352L24.7575 11.9722H26.2806L26.5752 10.9757H28.4308L28.61 11.9722H29.9539L28.7815 5.39041H27.5573ZM27.7553 7.1686L28.2068 9.63839H26.9973L27.7553 7.1686Z" fill="#00259F"/>
</g>
<path fill-rule="evenodd" clip-rule="evenodd" d="M13.7079 30.0011C13.8729 30 14.3632 29.9502 14.5709 30.7408C14.7108 31.2734 14.9337 32.1457 15.2395 33.3579H15.3641C15.6921 32.0799 15.9174 31.2076 16.04 30.7408C16.2499 29.9419 16.7746 30.0011 16.9844 30.0011H18.6037V35.6818H16.9533V32.3341H16.8426L15.9227 35.6818H14.681L13.761 32.3316H13.6503V35.6818H12V30.0011H13.7079ZM20.9735 30.0011V33.3513H21.1052L22.2242 30.5965C22.4415 30.0482 22.9045 30.0011 22.9045 30.0011H24.5015V35.6818H22.8167V32.3316H22.685L21.5879 35.0865C21.3707 35.6322 20.8857 35.6818 20.8857 35.6818H19.2887V30.0011H20.9735ZM30.3249 32.7006C30.0899 33.4517 29.3519 33.9896 28.5348 33.9896H26.7679V35.6818H25.1658V32.7006H30.3249Z" fill="#28A43F"/>
<path fill-rule="evenodd" clip-rule="evenodd" d="M28.6104 30.001H25.0801C25.1641 31.2657 26.1298 32.3484 27.1295 32.3484H30.4346C30.6253 31.2973 29.9687 30.001 28.6104 30.001Z" fill="url(#paint0_linear_1_250)"/>
<defs>
<linearGradient id="paint0_linear_1_250" x1="30.467" y1="31.4776" x2="25.0801" y2="31.4776" gradientUnits="userSpaceOnUse">
<stop stop-color="#1F5CD7"/>
<stop offset="1" stop-color="#02AEFF"/>
</linearGradient>
</defs>
</svg>
