<svg width="32" height="32" viewBox="0 0 32 32" fill="none" xmlns="http://www.w3.org/2000/svg">
<path fill-rule="evenodd" clip-rule="evenodd" d="M27.214 13.1474C27.1412 13.1428 27.0619 13.1428 26.9797 13.1429L26.9592 13.1429H23.7354C21.0781 13.1429 18.8045 15.2509 18.8045 18C18.8045 20.7491 21.0781 22.8571 23.7354 22.8571H26.9592L26.9797 22.8571C27.0619 22.8572 27.1412 22.8572 27.214 22.8526C28.2933 22.7839 29.2479 21.9326 29.3281 20.7436C29.3334 20.6656 29.3334 20.5816 29.3333 20.5037L29.3333 20.4825V15.5175L29.3333 15.4963C29.3334 15.4184 29.3334 15.3344 29.3281 15.2564C29.2479 14.0674 28.2933 13.2161 27.214 13.1474ZM23.4495 19.2952C24.1336 19.2952 24.6882 18.7153 24.6882 18C24.6882 17.2846 24.1336 16.7048 23.4495 16.7048C22.7654 16.7048 22.2108 17.2846 22.2108 18C22.2108 18.7153 22.7654 19.2952 23.4495 19.2952Z" fill="#7B58E8"/>
<path fill-rule="evenodd" clip-rule="evenodd" d="M26.9788 24.8C27.1705 24.795 27.3155 24.9739 27.2635 25.1598C27.0055 26.0826 26.596 26.8691 25.939 27.5313C24.9772 28.5006 23.7577 28.9308 22.2509 29.135C20.7869 29.3334 18.9162 29.3333 16.5544 29.3333H13.8391C11.4774 29.3333 9.60666 29.3334 8.14261 29.135C6.63588 28.9308 5.41635 28.5006 4.4546 27.5313C3.49285 26.562 3.06603 25.3329 2.86346 23.8143C2.66662 22.3388 2.66664 20.4534 2.66666 18.0731V17.9269C2.66664 15.5466 2.66662 13.6612 2.86346 12.1856C3.06603 10.6671 3.49285 9.43796 4.4546 8.46865C5.41635 7.49934 6.63588 7.06917 8.14261 6.865C9.60666 6.66662 11.4774 6.66664 13.8391 6.66666L16.5544 6.66666C18.9162 6.66664 20.7869 6.66662 22.2509 6.865C23.7577 7.06917 24.9772 7.49934 25.939 8.46865C26.596 9.13088 27.0055 9.91737 27.2635 10.8402C27.3155 11.0261 27.1704 11.205 26.9788 11.2L23.7353 11.2C20.0898 11.2 16.8766 14.1025 16.8766 18C16.8766 21.8975 20.0898 24.8 23.7353 24.8L26.9788 24.8ZM7.48593 11.8476C6.95361 11.8476 6.52208 12.2825 6.52208 12.819C6.52208 13.3555 6.95361 13.7905 7.48593 13.7905H12.6265C13.1588 13.7905 13.5904 13.3555 13.5904 12.819C13.5904 12.2825 13.1588 11.8476 12.6265 11.8476H7.48593Z" fill="#7B58E8"/>
<path d="M10.3689 5.36584L12.9806 3.44167C14.3832 2.40832 16.2834 2.40832 17.686 3.44167L20.3115 5.37596C19.2137 5.33326 17.9878 5.33329 16.6438 5.33332H13.7498C12.5216 5.3333 11.3921 5.33327 10.3689 5.36584Z" fill="#7B58E8"/>
</svg>
