<svg width="42" height="42" viewBox="0 0 42 42" fill="none" xmlns="http://www.w3.org/2000/svg">
<path d="M42 21C42 9.40202 32.598 0 21 0C9.40202 0 0 9.40202 0 21C0 32.598 9.40202 42 21 42C32.598 42 42 32.598 42 21Z" fill="#8B3FFD"/>
<path d="M24.1489 12.075C18.8858 12.075 14.6992 16.3215 14.6992 21.525C14.6992 26.7883 18.9456 30.975 24.1489 30.975C29.3522 30.975 33.5986 26.7285 33.5986 21.525C33.6584 16.3215 29.3522 12.075 24.1489 12.075ZM24.1489 25.0538C22.235 25.0538 20.6202 23.439 20.6202 21.525C20.6202 19.6111 22.235 17.9962 24.1489 17.9962C26.0627 17.9962 27.6776 19.6111 27.6776 21.525C27.6776 23.439 26.1226 25.0538 24.1489 25.0538Z" fill="white"/>
<path d="M14.6996 14.175V28.875H11.4519L7.34961 14.175H14.6996Z" fill="white"/>
</svg>
